<?xml version="1.0" encoding="utf-8"?>
<svg version="1.1" id="Capa_1" xmlns="http://www.w3.org/2000/svg" xmlns:xlink="http://www.w3.org/1999/xlink" x="0px" y="0px"
	 width="437.6px" height="241.5px" viewBox="0 0 437.6 241.5" style="enable-background:new 0 0 437.6 241.5;" xml:space="preserve"
	>
<style type="text/css">
	.st0{fill:#FFFFFF;}
</style>
<g>
	<path class="st0" d="M212.2,35.8c0,0.4,0,0.8,0,1.1c0,8.1,0,16.2,0,24.3c0,0.4,0,0.8,0,1.2c-11.8,0-23.5,0-35.3,0
		c0,18.4,0,36.8,0,55.2c-9.8,0-19.4,0-29.1,0c0-18.4,0-36.8,0-55.2c-0.4,0-0.7-0.1-1-0.1c-12,0-24,0-36.1,0c-0.5,0-1-0.1-1.2,0.5
		c-0.2,0.5,0.2,0.9,0.5,1.2c3.2,3.5,6.5,7,9.7,10.5c2.5,2.8,4.6,6,5.6,9.6c2.4,8.8,1.4,17-4.3,24.3c-3.7,4.7-8.6,7.5-14.4,8.7
		c-2.1,0.4-4.2,0.5-6.3,0.5c-25.6,0-51.1,0-76.7,0c-0.4,0-0.8,0-1.2,0c0-9.7,0-19.3,0-29c0.4,0,0.7,0,1.1,0c21.2,0,42.4,0,63.6,0
		c0.3,0,0.6,0,1,0c0.9-0.1,1.2-0.9,0.7-1.6c-0.1-0.2-0.3-0.4-0.5-0.6c-2.6-2.8-5.2-5.6-7.8-8.4c-2.2-2.3-3.8-5-5-7.9
		c-1.8-4.1-2.7-8.4-2.1-12.9c1-7.5,4.8-13.3,11.2-17.3c2.9-1.8,6.1-3,9.4-3.7c1-0.2,2.1-0.4,3.1-0.6
		C135.3,35.8,173.8,35.8,212.2,35.8z"/>
	<path class="st0" d="M22.2,124.1c0.4-0.1,0.8-0.3,1.2-0.3c10.4,0,20.9,0,31.3,0c0.2,0,0.4,0,0.7,0.1c1.1,3.6,2.1,7.2,3.2,10.8
		c1.1,3.6,2.1,7.2,3.2,10.8c0.1,0,0.2,0,0.3,0c0.1-0.3,0.3-0.6,0.3-0.9c1.7-6.2,3.5-12.5,5.2-18.7c0.1-0.5,0.3-0.9,0.4-1.4
		c0.1-0.5,0.4-0.6,0.8-0.6c0.9,0,1.8,0,2.7,0c9.7,0,19.4,0,29.1,0c0.2,0,0.4,0,0.6,0c0.9,0,0.9,0,1.2,0.9c1,3.1,1.9,6.2,2.9,9.2
		c1.1,3.5,2.2,7.1,3.3,10.6c0.1,0.3,0.2,0.6,0.4,0.9c0.1,0,0.2,0,0.2,0c0.1-0.3,0.3-0.7,0.4-1c2-6.5,3.9-13,5.8-19.6
		c0.1-0.2,0.1-0.4,0.2-0.5c0.1-0.4,0.3-0.5,0.7-0.5c0.2,0,0.4,0,0.6,0c9.5,0,19,0,28.5,0c1.4,0,1.4,0,1,1.4
		c-8,26.4-16.1,52.8-24.1,79.2c0,0.2-0.1,0.3-0.1,0.5c-0.3,0.8-0.3,0.8-1.2,0.8c-8.6,0-17.3,0-25.9,0c-0.9,0-0.9,0-1.2-0.9
		c-2.8-9.3-5.6-18.6-8.4-27.9c-0.2-0.7-0.4-1.3-0.6-2c-0.6,0.2-0.6,0.7-0.7,1c-1.2,3.9-2.5,7.9-3.7,11.8c-1.7,5.6-3.5,11.2-5.2,16.8
		c-0.1,0.2-0.1,0.4-0.2,0.6c-0.1,0.4-0.4,0.6-0.8,0.6c-0.2,0-0.4,0-0.6,0c-8.3,0-16.7,0-25,0c0,0-0.1,0-0.1,0c-1.1,0-1.1,0-1.4-1.1
		c-0.2-0.8-0.5-1.6-0.7-2.4c-7.9-25.5-15.8-51-23.7-76.5c-0.1-0.4-0.4-0.8-0.6-1.2C22.2,124.4,22.2,124.2,22.2,124.1z"/>
	<path class="st0" d="M359.4,35.8c1.1,0.2,2.3,0.4,3.4,0.6c7.3,1.5,13.4,4.9,18,10.9c2.9,3.7,4.4,8,4.8,12.6c0.3,3.6,0,7.2-1,10.7
		c-1.3,4.4-3.7,8.1-7.3,10.9c-1.9,1.5-3.9,2.7-5.8,4.1c-0.9,0.6-1,1.2-0.2,1.9c0.8,0.7,1.7,1,2.7,1.1c0.9,0.1,1.8,0.2,2.7,0.2
		c12.4,0,24.9,0,37.3,0c0.4,0,0.8,0,1.2,0c0.2,0.7,0.3,27.6,0.1,28.9c-0.3,0-0.5,0.1-0.8,0.1c-15.9,0-31.7,0-47.6,0
		c-4.4,0-8.5-1.2-12.4-3.4c-1.5-0.8-2.8-1.9-4-3.1c-5.2-5.2-10.4-10.5-15.6-15.7c-0.3-0.3-0.6-0.6-1.1-0.8c-0.2,2.6-0.1,5.1-0.2,7.7
		c0,2.5,0,5.1,0,7.6c0,2.6,0,5.1,0,7.7c-0.4,0-0.7,0-1,0c-10,0-20,0-30,0c-0.1,0-0.2,0-0.3,0c-0.9,0-0.9-0.1-1-0.9
		c0-0.2,0-0.4,0-0.7c0-26.4,0-52.7,0-79.1c0-0.4,0-0.8,0-1.2C320.7,35.8,340,35.8,359.4,35.8z M343.4,69.4
		C343.4,69.4,343.4,69.4,343.4,69.4c2.7,0,5.4,0,8.2,0c2.3,0,4.2-1.5,4.8-3.6c0.6-2.5-0.3-4.9-2.4-6c-1.1-0.6-2.2-0.8-3.4-0.8
		c-5.1,0-10.2,0-15.4,0c-0.2,0-0.5-0.1-0.7,0c-0.2,0.1-0.5,0.3-0.6,0.5c-0.1,0.2,0,0.4,0,0.7c0,2.6,0,5.2,0,7.9
		c0,1.2,0.1,1.3,1.3,1.3C338,69.4,340.7,69.4,343.4,69.4z"/>
	<path class="st0" d="M270.4,35.8c0.2,0.4,0.5,0.9,0.7,1.3c8.2,26.4,16.3,52.7,24.5,79.1c0.4,1.3,0.2,1.5-1.2,1.5
		c-3.4,0-6.8,0-10.2,0c-5.5,0-11.1,0-16.6,0c-1.4,0-1.4,0.2-1.9-1.4c-1-3.1-2-6.2-3-9.3c-0.4-1.1-0.4-1.1-1.5-1.1
		c-8.5,0-17,0-25.5,0c-1.1,0-1.2,0-1.5,1.1c-1,3.2-2,6.5-3,9.7c-0.3,1.1-0.4,1.1-1.5,1.1c-9.2,0-18.4,0-27.5,0c-0.2,0-0.4,0-0.6,0
		c-0.7-0.1-0.9-0.4-0.7-1.1c0.6-2.2,1.3-4.4,2-6.6c7.3-24.3,14.7-48.5,22-72.8c0.2-0.5,0.3-1,0.8-1.4
		C240.6,35.8,255.5,35.8,270.4,35.8z M248.8,61.1c-0.2,0.4-0.3,0.7-0.4,1c-0.8,2.5-1.5,4.9-2.3,7.4c-1.3,4.2-2.6,8.4-3.9,12.5
		c-0.3,0.9,0,1.6,1.2,1.6c1.8-0.1,3.5,0,5.3,0c1.9,0,3.8,0,5.8,0c0.8,0,1.2-0.4,1-1.2c-0.1-0.3-0.1-0.6-0.2-0.8
		c-2-6.4-4-12.9-6-19.3C249.1,61.9,249,61.6,248.8,61.1z"/>
	<path class="st0" d="M415.3,123.8c0,8.9,0,17.7,0,26.5c-0.4,0-0.8,0-1.2,0c-12.7,0-25.3,0-38,0c-0.3,0-0.6,0-0.9,0
		c-0.7,0.1-1,0.7-0.6,1.2c0.2,0.2,0.4,0.4,0.6,0.6c3.1,3.4,6.3,6.8,9.4,10.2c2.4,2.6,4.3,5.5,5.4,8.9c2.9,9.3,1.8,18.1-4.5,25.7
		c-3.8,4.6-8.9,7.3-14.8,8.2c-1.8,0.3-3.7,0.4-5.5,0.4c-20.2,0-40.5,0-60.7,0c-4.1,0-8-1-11.8-2.7c-1.9-0.9-3.6-2.2-5.1-3.7
		c-5.3-5.3-10.5-10.6-15.8-15.8c-0.3-0.3-0.6-0.6-1.1-0.8c-0.1,2.6-0.1,5.1-0.1,7.7c0,2.5,0,5.1,0,7.6c0,2.6,0,5.1,0,7.7
		c-0.4,0-0.6,0.1-0.9,0.1c-10.1,0-20.1,0-30.2,0c-0.1,0-0.3,0-0.4,0c-0.6,0-0.8-0.2-0.8-0.8c0-0.2,0-0.4,0-0.6c0-26.5,0-53,0-79.4
		c0-0.3,0-0.6,0-1c0.5,0,0.9,0,1.3,0c13.5,0,27.1,0,40.6,0c4.8,0,9.6-0.1,14.4,0c8.5,0.3,15.9,3.3,21.8,9.6
		c4.1,4.4,6.1,9.7,6.4,15.6c0.1,3.2-0.1,6.3-1,9.4c-1.4,4.7-4,8.5-7.9,11.4c-1.7,1.3-3.6,2.5-5.4,3.7c-0.9,0.6-1,1.2-0.2,1.9
		c0.7,0.6,1.5,0.9,2.3,1c0.8,0.1,1.5,0.2,2.3,0.2c13.2,0,26.4,0,39.6,0c0.2,0,0.5,0,0.7,0c0.7-0.2,1-0.9,0.6-1.6
		c-0.2-0.2-0.4-0.4-0.6-0.6c-2.8-3-5.7-6-8.5-9.2c-3.3-3.7-5.2-8.2-6.1-13c-2.2-11.3,4.7-21.7,13.6-25.6c3.2-1.4,6.6-2.5,10.1-2.8
		c0.5,0,1.1-0.1,1.6-0.1c16.8,0,33.5,0,50.3,0C414.5,123.8,414.8,123.8,415.3,123.8z M280.5,157.3
		C280.5,157.3,280.5,157.3,280.5,157.3c2.7,0,5.3,0,8,0c2.9,0,5-2,5-4.9c0.1-2.5-1.2-4.4-3.6-5.1c-0.7-0.2-1.4-0.3-2.2-0.3
		c-5.2,0-10.4,0-15.6,0c-1.1,0-1.2,0.1-1.2,1.1c0,2.7,0,5.4,0,8.1c0,1.1,0.1,1.2,1.1,1.2C274.9,157.3,277.7,157.3,280.5,157.3z"/>
	<path class="st0" d="M183.5,123.8c7,0,13.9,0,20.9,0c0.3,0,0.5,0,0.8,0c0.6,0,1,0.3,1.2,0.9c0,0.2,0.1,0.3,0.1,0.5
		c8.2,26.3,16.3,52.7,24.5,79c0.4,1.3,0.2,1.6-1.2,1.6c-9,0-18,0-27.1,0c-1.1,0-1.1,0-1.5-1.1c-1-3.2-2-6.4-3.1-9.6
		c-0.4-1.2-0.4-1.3-1.7-1.3c-8.4,0-16.8,0-25.1,0c-0.2,0-0.3,0-0.5,0c-0.9,0-1,0.1-1.2,0.9c-0.5,1.7-1.1,3.4-1.6,5.1
		c-0.5,1.6-1,3.2-1.5,4.8c-0.3,1-0.3,1-1.3,1c-9.2,0-18.5,0-27.7,0c-0.2,0-0.3,0-0.5,0c-0.7-0.1-0.9-0.4-0.8-1
		c0.1-0.2,0.1-0.5,0.2-0.7c6.9-22.7,13.7-45.3,20.6-68c1.1-3.6,2.2-7.3,3.3-10.9c0.3-1.1,0.5-1.3,1.7-1.3
		C169.2,123.8,176.3,123.8,183.5,123.8z M184.3,149.3c-0.1,0-0.1,0-0.2,0c-0.2,0.5-0.3,1.1-0.5,1.6c-1.9,6.3-3.9,12.6-5.9,18.9
		c-0.4,1.4,0,1.8,1.3,1.8c3.4-0.1,6.8-0.1,10.3,0c1.6,0,1.9-0.4,1.4-1.9c-2.1-6.5-4.1-13.1-6.1-19.7
		C184.5,149.7,184.4,149.5,184.3,149.3z"/>
</g>
</svg>
