<?xml version="1.0" encoding="utf-8"?>
<!-- Generator: Adobe Illustrator 22.0.0, SVG Export Plug-In . SVG Version: 6.00 Build 0)  -->
<svg version="1.1" id="Capa_1" xmlns="http://www.w3.org/2000/svg" xmlns:xlink="http://www.w3.org/1999/xlink" x="0px" y="0px"
	 width="192px" height="60px" viewBox="0 0 192 60" style="enable-background:new 0 0 192 60;" xml:space="preserve">
<style type="text/css">
	.st0{fill:#FFFFFF;}
</style>
<g>
	<path class="st0" d="M45.6,20c0,0.1,0,0.2,0,0.3c0,2,0,3.9,0,5.9c0,0.1,0,0.2,0,0.3c-2.9,0-5.7,0-8.5,0c0,4.5,0,8.9,0,13.4
		c-2.4,0-4.7,0-7,0c0-4.5,0-8.9,0-13.4c-0.1,0-0.2,0-0.2,0c-2.9,0-5.8,0-8.7,0c-0.1,0-0.2,0-0.3,0.1c0,0.1,0,0.2,0.1,0.3
		c0.8,0.8,1.6,1.7,2.3,2.5c0.6,0.7,1.1,1.5,1.4,2.3c0.6,2.1,0.3,4.1-1,5.9c-0.9,1.1-2.1,1.8-3.5,2.1c-0.5,0.1-1,0.1-1.5,0.1
		c-6.2,0-12.1,0-18.3,0c-0.1,0-0.2,0-0.3,0c0-2.3,0-4.7,0-7c0.1,0,0.2,0,0.3,0c5.1,0,10,0,15.1,0c0.1,0,0.1,0,0.2,0
		c0.2,0,0.3-0.2,0.2-0.4l-0.1-0.1c-0.6-0.7-1.3-1.4-1.9-2c-0.5-0.6-0.9-1.2-1.2-1.9c-0.4-1-0.7-2-0.5-3.1c0.2-1.8,1.2-3.2,2.7-4.2
		c0.7-0.4,1.5-0.8,2.3-0.9c0.2,0,0.5-0.1,0.8-0.1C27,20,36.3,20,45.6,20z"/>
	<path class="st0" d="M97,20.2c0.1,0,0.2-0.1,0.3-0.1c2.5,0,5.1,0,7.6,0c0,0,0.1,0,0.2,0c0.3,0.9,0.5,1.7,0.8,2.6s0.5,1.7,0.8,2.6
		c0,0,0,0,0.1,0c0-0.1,0.1-0.1,0.1-0.2c0.4-1.5,0.8-3.1,1.3-4.6c0-0.1,0.1-0.2,0.1-0.3c0-0.1,0.1-0.1,0.2-0.1c0.2,0,0.4,0,0.7,0
		c2.3,0,4.7,0,7,0h0.1c0.2,0,0.2,0,0.3,0.2c0.2,0.8,0.5,1.5,0.7,2.3c0.3,0.8,0.5,1.7,0.8,2.6c0,0.1,0,0.1,0.1,0.2l0,0
		c0-0.1,0.1-0.2,0.1-0.2c0.5-1.6,0.9-3.1,1.4-4.7v-0.1c0-0.1,0.1-0.1,0.2-0.1h0.1c2.3,0,4.6,0,6.9,0c0.3,0,0.3,0,0.2,0.3
		c-2,6.3-4,12.8-5.9,19.2v0.1c0,0.2,0,0.2-0.3,0.2c-2.1,0-4.2,0-6.3,0c-0.2,0-0.2,0-0.3-0.2c-0.7-2.3-1.4-4.5-2-6.8
		c0-0.2-0.1-0.3-0.1-0.5c-0.1,0-0.1,0.2-0.2,0.2c-0.3,0.9-0.6,1.9-0.9,2.9c-0.4,1.4-0.8,2.7-1.3,4.1v0.1c0,0.1-0.1,0.1-0.2,0.1h-0.1
		c-2,0-4,0-6.1,0l0,0c-0.3,0-0.3,0-0.3-0.3c0-0.2-0.1-0.4-0.2-0.6c-1.9-6.2-3.8-12.4-5.7-18.6C97.2,20.5,97.1,20.4,97,20.2L97,20.2z
		"/>
	<path class="st0" d="M81.3,20c0.3,0,0.6,0.1,0.8,0.1c1.8,0.4,3.2,1.2,4.4,2.6c0.7,0.9,1.1,1.9,1.2,3.1c0.1,0.9,0,1.7-0.2,2.6
		c-0.3,1.1-0.9,2-1.8,2.6c-0.5,0.4-0.9,0.7-1.4,1c-0.2,0.1-0.2,0.3,0,0.5s0.4,0.2,0.7,0.3c0.2,0,0.4,0,0.7,0c3,0,6.1,0,9.1,0
		c0.1,0,0.2,0,0.3,0c0,0.2,0.1,6.7,0,7c-0.1,0-0.1,0-0.2,0c-3.8,0-7.7,0-11.5,0c-1.1,0-2.1-0.3-3-0.8c-0.4-0.2-0.7-0.5-1-0.8
		c-1.3-1.3-2.5-2.5-3.8-3.8c-0.1-0.1-0.1-0.1-0.3-0.2c0,0.6,0,1.2,0,1.9c0,0.6,0,1.2,0,1.8s0,1.2,0,1.9c-0.1,0-0.2,0-0.2,0
		c-2.4,0-4.8,0-7.3,0c0,0,0,0-0.1,0c-0.2,0-0.2,0-0.2-0.2c0,0,0-0.1,0-0.2c0-6.4,0-12.8,0-19.2c0-0.1,0-0.2,0-0.3
		C71.9,20,76.6,20,81.3,20z M77.4,28.2L77.4,28.2c0.7,0,1.3,0,2,0c0.6,0,1-0.4,1.2-0.9c0.1-0.6-0.1-1.2-0.6-1.5
		c-0.3-0.1-0.5-0.2-0.8-0.2c-1.2,0-2.5,0-3.8,0c0,0-0.1,0-0.2,0l-0.1,0.1c0,0,0,0.1,0,0.2c0,0.6,0,1.3,0,1.9c0,0.3,0,0.3,0.3,0.3
		C76.1,28.2,76.8,28.2,77.4,28.2z"/>
	<path class="st0" d="M59.7,20c0,0.1,0.1,0.2,0.2,0.3c2,6.4,3.9,12.8,5.9,19.2c0.1,0.3,0,0.4-0.3,0.4c-0.8,0-1.6,0-2.5,0
		c-1.3,0-2.7,0-4,0c-0.3,0-0.3,0-0.5-0.3c-0.2-0.8-0.5-1.5-0.7-2.3C57.7,37,57.7,37,57.4,37c-2.1,0-4.1,0-6.2,0
		c-0.3,0-0.3,0-0.4,0.3c-0.2,0.8-0.5,1.6-0.7,2.3c0,0.4,0,0.4-0.3,0.4c-2.2,0-4.5,0-6.7,0H43c-0.2,0-0.2-0.1-0.2-0.3
		c0.1-0.5,0.3-1.1,0.5-1.6c1.8-5.9,3.6-11.8,5.4-17.7c0-0.1,0.1-0.2,0.2-0.3C52.5,20,56.1,20,59.7,20z M54.5,26.2
		c0,0.1-0.1,0.2-0.1,0.2c-0.2,0.6-0.4,1.2-0.6,1.8c-0.3,1-0.6,2-0.9,3.1c-0.1,0.2,0,0.4,0.3,0.4c0.4,0,0.8,0,1.3,0s0.9,0,1.4,0
		c0.2,0,0.3-0.1,0.2-0.3c0-0.1,0-0.1,0-0.2c-0.5-1.5-1-3.1-1.5-4.7C54.6,26.4,54.6,26.3,54.5,26.2z"/>
	<path class="st0" d="M192,20.1c0,2.2,0,4.3,0,6.4c-0.1,0-0.2,0-0.3,0c-3.1,0-5.9,0-8.9,0c-0.1,0-0.1,0-0.2,0
		c-0.2,0-0.2,0.2-0.1,0.3l0.1,0.1c0.8,0.8,1.5,1.6,2.3,2.5c0.6,0.6,1,1.3,1.3,2.2c0.7,2.3,0.4,4.4-1.1,6.2c-0.9,1.1-2.2,1.8-3.6,2
		c-0.4,0.1-0.9,0.1-1.3,0.1c-4.9,0-9.8,0-14.7,0c-1,0-1.9-0.2-2.9-0.7c-0.5-0.2-0.9-0.5-1.2-0.9c-1.3-1.3-2.5-2.6-3.8-3.8
		c-0.1-0.1-0.1-0.1-0.3-0.2c0,0.6,0,1.2,0,1.9c0,0.6,0,1.2,0,1.8s0,1.2,0,1.9c-0.1,0-0.1,0-0.2,0c-2.4,0-4.9,0-7.3,0h-0.1
		c-0.1,0-0.2,0-0.2-0.2v-0.1c0-6.4,0-12.9,0-19.3c0-0.1,0-0.1,0-0.2c0.1,0,0.2,0,0.3,0c3.3,0,6.6,0,9.9,0c1.2,0,2.3,0,3.5,0
		c2.1,0.1,3.8,0.8,5.3,2.3c1,1.1,1.5,2.3,1.5,3.8c0,0.8,0,1.5-0.2,2.3c-0.3,1.1-1,2.1-1.9,2.8c-0.4,0.3-0.9,0.6-1.3,0.9
		c-0.2,0.1-0.2,0.3,0,0.5c0.2,0.1,0.4,0.2,0.6,0.2c0.2,0,0.4,0,0.6,0c3.2,0,6.4,0,9.6,0c0,0,0.1,0,0.2,0c0.2,0,0.2-0.2,0.1-0.4
		l-0.1-0.1c-0.7-0.8-1.4-1.5-2.1-2.3c-0.8-0.9-1.3-2-1.5-3.1c-0.5-2.7,1.1-5.3,3.3-6.2c0.8-0.3,1.6-0.6,2.4-0.7c0.1,0,0.3,0,0.4,0
		C184.2,20.1,187.9,20.1,192,20.1C191.8,20.1,191.9,20.1,192,20.1z M159.7,28.2L159.7,28.2c0.7,0,1.3,0,1.9,0c0.7,0,1.2-0.5,1.2-1.2
		c0-0.6-0.3-1.1-0.9-1.2c-0.2,0-0.3-0.1-0.5-0.1c-1.3,0-2.5,0-3.8,0c-0.3,0-0.3,0-0.3,0.3c0,0.7,0,1.3,0,2c0,0.3,0,0.3,0.3,0.3
		C158.3,28.2,159,28.2,159.7,28.2z"/>
	<path class="st0" d="M136.1,20.1c1.7,0,3.4,0,5.1,0c0.1,0,0.1,0,0.2,0c0.1,0,0.2,0.1,0.3,0.2v0.1c2,6.4,3.9,12.8,5.9,19.2
		c0.1,0.3,0,0.4-0.3,0.4c-2.2,0-4.4,0-6.6,0c-0.3,0-0.3,0-0.4-0.3c-0.2-0.8-0.5-1.5-0.8-2.3c-0.1-0.3-0.1-0.3-0.4-0.3
		c-2,0-4.1,0-6.1,0h-0.1c-0.2,0-0.2,0-0.3,0.2c-0.1,0.4-0.3,0.8-0.4,1.2c-0.1,0.4-0.2,0.8-0.4,1.2c-0.1,0.2-0.1,0.2-0.3,0.2
		c-2.2,0-4.5,0-6.7,0h-0.1c-0.2,0-0.2-0.1-0.2-0.2c0,0,0-0.1,0-0.2c1.7-5.5,3.3-11,5-16.5c0.3-0.9,0.5-1.8,0.8-2.6
		c0.1-0.3,0.1-0.3,0.4-0.3C132.7,20.1,134.4,20.1,136.1,20.1z M136.3,26.3L136.3,26.3c-0.1,0.1-0.1,0.3-0.2,0.4
		c-0.5,1.5-0.9,3.1-1.4,4.6c-0.1,0.3,0,0.4,0.3,0.4c0.8,0,1.6,0,2.5,0c0.4,0,0.5-0.1,0.3-0.5C137.3,29.6,136.8,28,136.3,26.3
		C136.4,26.4,136.3,26.3,136.3,26.3z"/>
</g>
</svg>
