<?xml version="1.0" encoding="utf-8"?>
<!-- Generator: Adobe Illustrator 22.0.0, SVG Export Plug-In . SVG Version: 6.00 Build 0)  -->
<svg version="1.1" id="Capa_1" xmlns="http://www.w3.org/2000/svg" xmlns:xlink="http://www.w3.org/1999/xlink" x="0px" y="0px"
	 width="203px" height="88px" viewBox="0 0 203 88" style="enable-background:new 0 0 203 88;" xml:space="preserve">
<style type="text/css">
	.st0{fill:#FFFFFF;}
</style>
<g>
	<path class="st0" d="M98.1,0.1c0,0.2,0,0.4,0,0.6c0,4.2,0,8.4,0,12.6c0,0.2,0,0.4,0,0.6c-6.1,0-12.1,0-18.2,0c0,9.5,0,19,0,28.5
		c-5.1,0-10,0-15,0c0-9.5,0-19,0-28.5c-0.2,0-0.4-0.1-0.5-0.1c-6.2,0-12.4,0-18.6,0c-0.3,0-0.5-0.1-0.6,0.3
		c-0.1,0.3,0.1,0.5,0.3,0.6c1.7,1.8,3.4,3.6,5,5.4c1.3,1.4,2.4,3.1,2.9,5c1.2,4.5,0.7,8.8-2.2,12.6c-1.9,2.4-4.4,3.9-7.4,4.5
		c-1.1,0.2-2.2,0.3-3.3,0.3c-13.2,0-26.4,0-39.6,0c-0.2,0-0.4,0-0.6,0c0-5,0-10,0-15c0.2,0,0.4,0,0.6,0c10.9,0,21.9,0,32.8,0
		c0.2,0,0.3,0,0.5,0c0.5-0.1,0.6-0.5,0.4-0.8c-0.1-0.1-0.2-0.2-0.3-0.3c-1.3-1.4-2.7-2.9-4-4.3c-1.1-1.2-2-2.6-2.6-4.1
		c-0.9-2.1-1.4-4.3-1.1-6.7c0.5-3.9,2.5-6.9,5.8-8.9c1.5-0.9,3.1-1.6,4.9-1.9c0.5-0.1,1.1-0.2,1.6-0.3C58.4,0.1,78.3,0.1,98.1,0.1z"
		/>
	<path class="st0" d="M0,45.8c0.2-0.1,0.4-0.2,0.6-0.2c5.4,0,10.8,0,16.2,0c0.1,0,0.2,0,0.4,0.1c0.6,1.9,1.1,3.7,1.7,5.6
		c0.6,1.9,1.1,3.7,1.7,5.6c0.1,0,0.1,0,0.2,0c0.1-0.2,0.2-0.3,0.2-0.5c0.9-3.2,1.8-6.5,2.7-9.7c0.1-0.3,0.2-0.5,0.2-0.7
		s0.2-0.3,0.4-0.3c0.5,0,0.9,0,1.4,0c5,0,10,0,15,0c0.1,0,0.2,0,0.3,0c0.5,0,0.5,0,0.6,0.5c0.5,1.6,1,3.2,1.5,4.8
		c0.6,1.8,1.1,3.7,1.7,5.5c0.1,0.2,0.1,0.3,0.2,0.5c0.1,0,0.1,0,0.1,0c0.1-0.2,0.2-0.4,0.2-0.5c1-3.4,2-6.7,3-10.1
		c0.1-0.1,0.1-0.2,0.1-0.3c0.1-0.2,0.2-0.3,0.4-0.3c0.1,0,0.2,0,0.3,0c4.9,0,9.8,0,14.7,0c0.7,0,0.7,0,0.5,0.7
		C60,60,55.8,73.7,51.7,87.3c0,0.1-0.1,0.2-0.1,0.3C51.5,88,51.5,88,51,88c-4.4,0-8.9,0-13.4,0c-0.5,0-0.5,0-0.6-0.5
		c-1.4-4.8-2.9-9.6-4.3-14.4c-0.1-0.4-0.2-0.7-0.3-1c-0.3,0.1-0.3,0.4-0.4,0.5c-0.6,2-1.3,4.1-1.9,6.1c-0.9,2.9-1.8,5.8-2.7,8.7
		c-0.1,0.1-0.1,0.2-0.1,0.3c-0.1,0.2-0.2,0.3-0.4,0.3c-0.1,0-0.2,0-0.3,0c-4.3,0-8.6,0-12.9,0h-0.1c-0.6,0-0.6,0-0.7-0.6
		c-0.1-0.4-0.3-0.8-0.4-1.2C8.5,73,4.4,59.8,0.3,46.6C0.3,46.4,0.1,46.2,0,46C0,45.9,0,45.8,0,45.8z"/>
	<path class="st0" d="M174.1,0.1c0.6,0.1,1.2,0.2,1.8,0.3c3.8,0.8,6.9,2.5,9.3,5.6c1.5,1.9,2.3,4.1,2.5,6.5c0.2,1.9,0,3.7-0.5,5.5
		c-0.7,2.3-1.9,4.2-3.8,5.6c-1,0.8-2,1.4-3,2.1c-0.5,0.3-0.5,0.6-0.1,1c0.4,0.4,0.9,0.5,1.4,0.6c0.5,0.1,0.9,0.1,1.4,0.1
		c6.4,0,12.9,0,19.3,0c0.2,0,0.4,0,0.6,0c0.1,0.4,0.2,14.3,0.1,14.9c-0.2,0-0.3,0.1-0.4,0.1c-8.2,0-16.4,0-24.6,0
		c-2.3,0-4.4-0.6-6.4-1.8c-0.8-0.4-1.4-1-2.1-1.6c-2.7-2.7-5.4-5.4-8.1-8.1c-0.2-0.2-0.3-0.3-0.6-0.4c-0.1,1.3-0.1,2.6-0.1,4
		c0,1.3,0,2.6,0,3.9c0,1.3,0,2.6,0,4c-0.2,0-0.4,0-0.5,0c-5.2,0-10.3,0-15.5,0c-0.1,0-0.1,0-0.2,0c-0.5,0-0.5-0.1-0.5-0.5
		c0-0.1,0-0.2,0-0.4c0-13.6,0-27.2,0-40.9c0-0.2,0-0.4,0-0.6C154.1,0.1,164.1,0.1,174.1,0.1z M165.8,17.5L165.8,17.5
		c1.4,0,2.8,0,4.2,0c1.2,0,2.2-0.8,2.5-1.9c0.3-1.3-0.2-2.5-1.2-3.1c-0.6-0.3-1.1-0.4-1.8-0.4c-2.6,0-5.3,0-8,0
		c-0.1,0-0.3-0.1-0.4,0c-0.1,0.1-0.3,0.2-0.3,0.3c-0.1,0.1,0,0.2,0,0.4c0,1.3,0,2.7,0,4.1c0,0.6,0.1,0.7,0.7,0.7
		C163,17.5,164.4,17.5,165.8,17.5z"/>
	<path class="st0" d="M128.1,0.1c0.1,0.2,0.3,0.5,0.4,0.7c4.2,13.6,8.4,27.2,12.6,40.9c0.2,0.7,0.1,0.8-0.6,0.8c-1.8,0-3.5,0-5.3,0
		c-2.8,0-5.7,0-8.6,0c-0.7,0-0.7,0.1-1-0.7c-0.5-1.6-1-3.2-1.5-4.8c-0.2-0.6-0.2-0.6-0.8-0.6c-4.4,0-8.8,0-13.2,0
		c-0.6,0-0.6,0-0.8,0.6c-0.5,1.7-1,3.4-1.5,5c-0.2,0.6-0.2,0.6-0.8,0.6c-4.7,0-9.5,0-14.2,0c-0.1,0-0.2,0-0.3,0
		c-0.4-0.1-0.5-0.2-0.4-0.6c0.3-1.1,0.7-2.3,1-3.4c3.8-12.6,7.6-25.1,11.4-37.6c0.1-0.3,0.2-0.5,0.4-0.7
		C112.8,0.1,120.4,0.1,128.1,0.1z M117,13.2c-0.1,0.2-0.2,0.4-0.2,0.5c-0.4,1.3-0.8,2.5-1.2,3.8c-0.7,2.2-1.3,4.3-2,6.5
		c-0.2,0.5,0,0.8,0.6,0.8c0.9-0.1,1.8,0,2.7,0c1,0,2,0,3,0c0.4,0,0.6-0.2,0.5-0.6c-0.1-0.2-0.1-0.3-0.1-0.4c-1-3.3-2.1-6.7-3.1-10
		C117.1,13.6,117.1,13.4,117,13.2z"/>
	<path class="st0" d="M202.9,45.6c0,4.6,0,9.2,0,13.7c-0.2,0-0.4,0-0.6,0c-6.6,0-13.1,0-19.6,0c-0.2,0-0.3,0-0.5,0
		c-0.4,0.1-0.5,0.4-0.3,0.6c0.1,0.1,0.2,0.2,0.3,0.3c1.6,1.8,3.3,3.5,4.9,5.3c1.2,1.3,2.2,2.8,2.8,4.6c1.5,4.8,0.9,9.4-2.3,13.3
		c-2,2.4-4.6,3.8-7.6,4.2c-0.9,0.2-1.9,0.2-2.8,0.2c-10.4,0-20.9,0-31.3,0c-2.1,0-4.1-0.5-6.1-1.4c-1-0.5-1.9-1.1-2.6-1.9
		c-2.7-2.7-5.4-5.5-8.2-8.2c-0.2-0.2-0.3-0.3-0.6-0.4c-0.1,1.3-0.1,2.6-0.1,4c0,1.3,0,2.6,0,3.9c0,1.3,0,2.6,0,4
		c-0.2,0-0.3,0.1-0.5,0.1c-5.2,0-10.4,0-15.6,0c-0.1,0-0.2,0-0.2,0c-0.3,0-0.4-0.1-0.4-0.4c0-0.1,0-0.2,0-0.3c0-13.7,0-27.4,0-41.1
		c0-0.2,0-0.3,0-0.5c0.3,0,0.5,0,0.7,0c7,0,14,0,21,0c2.5,0,5-0.1,7.4,0c4.4,0.2,8.2,1.7,11.3,5c2.1,2.3,3.1,5,3.3,8.1
		c0.1,1.7-0.1,3.3-0.5,4.9c-0.7,2.4-2.1,4.4-4.1,5.9c-0.9,0.7-1.9,1.3-2.8,1.9c-0.5,0.3-0.5,0.6-0.1,1c0.4,0.3,0.8,0.5,1.2,0.5
		c0.4,0.1,0.8,0.1,1.2,0.1c6.8,0,13.6,0,20.4,0c0.1,0,0.3,0,0.4,0c0.4-0.1,0.5-0.5,0.3-0.8c-0.1-0.1-0.2-0.2-0.3-0.3
		c-1.4-1.6-2.9-3.1-4.4-4.8c-1.7-1.9-2.7-4.2-3.1-6.7c-1.1-5.8,2.4-11.2,7-13.2c1.7-0.7,3.4-1.3,5.2-1.4c0.3,0,0.6-0.1,0.8-0.1
		c8.7,0,17.3,0,26,0C202.5,45.6,202.7,45.6,202.9,45.6z M133.4,62.9L133.4,62.9c1.4,0,2.7,0,4.1,0c1.5,0,2.6-1,2.6-2.5
		c0.1-1.3-0.6-2.3-1.9-2.6c-0.4-0.1-0.7-0.2-1.1-0.2c-2.7,0-5.4,0-8.1,0c-0.6,0-0.6,0.1-0.6,0.6c0,1.4,0,2.8,0,4.2
		c0,0.6,0.1,0.6,0.6,0.6C130.5,62.9,131.9,62.9,133.4,62.9z"/>
	<path class="st0" d="M83.3,45.6c3.6,0,7.2,0,10.8,0c0.2,0,0.3,0,0.4,0c0.3,0,0.5,0.2,0.6,0.5c0,0.1,0.1,0.2,0.1,0.3
		c4.2,13.6,8.4,27.2,12.6,40.8c0.2,0.7,0.1,0.8-0.6,0.8c-4.6,0-9.3,0-14,0c-0.6,0-0.6,0-0.8-0.6c-0.5-1.7-1-3.3-1.6-5
		c-0.2-0.6-0.2-0.7-0.9-0.7c-4.3,0-8.7,0-13,0c-0.1,0-0.2,0-0.3,0c-0.5,0-0.5,0.1-0.6,0.5c-0.3,0.9-0.6,1.8-0.8,2.6
		c-0.3,0.8-0.5,1.7-0.8,2.5c-0.2,0.5-0.2,0.5-0.7,0.5c-4.7,0-9.6,0-14.3,0c-0.1,0-0.2,0-0.3,0c-0.4-0.1-0.5-0.2-0.4-0.5
		c0.1-0.1,0.1-0.3,0.1-0.4c3.6-11.7,7.1-23.4,10.6-35.2c0.6-1.9,1.1-3.8,1.7-5.6c0.2-0.6,0.3-0.7,0.9-0.7
		C75.9,45.6,79.6,45.6,83.3,45.6z M83.7,58.8c-0.1,0-0.1,0-0.1,0c-0.1,0.3-0.2,0.6-0.3,0.8c-1,3.3-2,6.5-3,9.8
		c-0.2,0.7,0,0.9,0.7,0.9c1.8-0.1,3.5-0.1,5.3,0c0.8,0,1-0.2,0.7-1c-1.1-3.4-2.1-6.8-3.1-10.2C83.8,59,83.7,58.9,83.7,58.8z"/>
</g>
</svg>
